<?xml version="1.0" encoding="utf-8"?>
<!-- Generator: Adobe Illustrator 24.2.3, SVG Export Plug-In . SVG Version: 6.00 Build 0)  -->
<svg version="1.1" id="Слой_1" xmlns="http://www.w3.org/2000/svg" xmlns:xlink="http://www.w3.org/1999/xlink" x="0px" y="0px"
	 viewBox="0 0 900 710.3" style="enable-background:new 0 0 900 710.3;" xml:space="preserve">
<style type="text/css">
	.st0{fill:none;stroke:#4533F0;stroke-width:5;stroke-miterlimit:10;}
	.st1{fill:none;stroke:#4533F0;stroke-width:3;stroke-miterlimit:10;}
	.st2{fill:#4533F0;}
	.st3{fill:none;stroke:#2C4942;stroke-width:5;stroke-miterlimit:10;}
	.st4{fill:none;stroke:#FF91B6;stroke-width:5;stroke-miterlimit:10;}
	.st5{fill:none;stroke:#2C4942;stroke-width:3;stroke-miterlimit:10;}
	.st6{fill:none;stroke:#2C4942;stroke-width:2;stroke-miterlimit:10;}
	.st7{fill:none;stroke:#00D972;stroke-width:5;stroke-miterlimit:10;}
	.st8{fill:#00D972;stroke:#2C4942;stroke-width:5;stroke-miterlimit:10;}
	.st9{fill:#00D972;stroke:#FF91B6;stroke-width:5;stroke-miterlimit:10;}
	.st10{fill:#FFFFFF;stroke:#4533F0;stroke-width:5;stroke-miterlimit:10;}
	.st11{fill:#2C4942;}
	.st12{fill:#FFFFFF;}
	.st13{fill:none;stroke:#2C4942;stroke-miterlimit:10;}
	.st14{fill:#FFFFFF;stroke:#4533F0;stroke-miterlimit:10;}
	.st15{fill:#FFFFFF;stroke:#4533F0;stroke-width:2;stroke-miterlimit:10;}
	.st16{fill:none;stroke:#2C4942;stroke-miterlimit:10;stroke-dasharray:5.0085,6.0101;}
	.st17{fill:none;stroke:#2C4942;stroke-miterlimit:10;stroke-dasharray:4.9133,5.896;}
	.st18{fill:none;stroke:#2C4942;stroke-miterlimit:10;stroke-dasharray:5,6;}
	.st19{fill:none;stroke:#2C4942;stroke-miterlimit:10;stroke-dasharray:4.4881,5.3857;}
	.st20{fill:none;stroke:#2C4942;stroke-miterlimit:10;stroke-dasharray:4.913,5.8956;}
	.st21{fill:none;stroke:#2C4942;stroke-width:2;stroke-miterlimit:10;stroke-dasharray:5,6;}
	.st22{fill:#4533F0;stroke:#2C4942;stroke-width:2;stroke-miterlimit:10;}
	.st23{fill:none;stroke:#4533F0;stroke-width:2;stroke-miterlimit:10;}
	.st24{fill:#4533F0;stroke:#2C4942;stroke-width:5;stroke-miterlimit:10;}
	.st25{fill:#FF91B6;stroke:#2C4942;stroke-width:5;stroke-miterlimit:10;}
	.st26{fill:#FF91B6;}
	.st27{fill:#00D972;}
	.st28{fill:none;stroke:#2C4942;stroke-width:2;stroke-miterlimit:10;stroke-dasharray:4.9693,5.9632;}
	.st29{fill:none;stroke:#2C4942;stroke-width:2;stroke-miterlimit:10;stroke-dasharray:5.0861,6.1033;}
	.st30{fill:none;stroke:#2C4942;stroke-width:2;stroke-miterlimit:10;stroke-dasharray:4.9992,5.999;}
	.st31{fill:none;stroke:#2C4942;stroke-width:2;stroke-miterlimit:10;stroke-dasharray:5.0096,6.0116;}
	.st32{fill:#4533F0;stroke:#2C4942;stroke-width:4;stroke-miterlimit:10;}
	.st33{fill:#FFFFFF;stroke:#2C4942;stroke-width:4;stroke-miterlimit:10;}
	.st34{fill:#2C4942;stroke:#2C4942;stroke-width:4;stroke-miterlimit:10;}
	.st35{fill:#2C4942;stroke:#2C4942;stroke-miterlimit:10;}
	.st36{fill:none;stroke:#FF91B6;stroke-width:2;stroke-miterlimit:10;}
	.st37{fill:#FFFFFF;stroke:#2C4942;stroke-miterlimit:10;}
	.st38{fill:none;}
	.st39{fill:#4533F0;stroke:#FF91B6;stroke-width:5;stroke-miterlimit:10;}
	.st40{fill:#4533F0;stroke:#00D972;stroke-width:5;stroke-miterlimit:10;}
	.st41{fill:#FFFFFF;stroke:#2C4942;stroke-width:5;stroke-miterlimit:10;}
	.st42{fill:#FFFFFF;stroke:#FF91B6;stroke-width:5;stroke-miterlimit:10;}
	.st43{fill:#00D972;stroke:#2C4942;stroke-miterlimit:10;}
	.st44{fill:#4533F0;stroke:#FFFFFF;stroke-width:2;stroke-miterlimit:10;}
	.st45{fill:#D5DBD9;stroke:#FFFFFF;stroke-width:2;stroke-miterlimit:10;}
	.st46{fill:none;stroke:#D5DBD9;stroke-width:5;stroke-miterlimit:10;}
	.st47{fill:#D5DBD9;stroke:#FF91B6;stroke-width:2;stroke-miterlimit:10;}
	.st48{fill:#D5DBD9;}
	.st49{fill:#4533F0;stroke:#FFFFFF;stroke-miterlimit:10;}
</style>
<g>
	<g>
		<g>
			<path class="st11" d="M152.3,290.5c0-2-1.3-3.1-3.6-3.1h-3.1v-2.2h3.2c1.9,0,3-1,3-2.8c0-1.7-1.4-2.8-3.4-2.8
				c-2.1,0-3.1,1.2-3.4,2.7h-2.4c0.1-2.3,1.9-4.8,5.7-4.8c3.7,0,5.8,2,5.8,4.9c0,2.2-1.4,3.4-2.5,3.8c1.3,0.4,3,1.7,3,4.5
				c0,3-2.3,5.1-6.3,5.1c-4.2,0-6.1-2.6-6.3-5h2.4c0.3,1.4,1.4,2.8,3.9,2.8C150.8,293.6,152.3,292.4,152.3,290.5z"/>
		</g>
	</g>
	<g>
		<g>
			<path class="st11" d="M372.8,295.5h-12.5V294l6-5.9c1.9-1.9,3-3.2,3-5.1c0-1.9-1.2-3.3-3.3-3.3s-3.3,1.4-3.3,3.5v1.1h-2.4v-1.2
				c0-3.2,2.1-5.6,5.7-5.6c3.5,0,5.7,2.3,5.7,5.5c0,2.8-1.7,4.6-3.9,6.7l-3.7,3.7h8.6V295.5z"/>
		</g>
	</g>
	<g>
		<g>
			<path class="st11" d="M256.4,289.8c-4,0-6.3-2.5-6.3-6c0-2.7,1.3-4.5,2.9-6.6l4.1-5.4h2.9l-5.2,6.6c0.6-0.3,1.4-0.5,2.3-0.5
				c3.3,0,5.7,2.3,5.7,5.9C262.8,287.1,260.4,289.8,256.4,289.8z M256.4,279.8c-2.4,0-3.9,1.7-3.9,3.9c0,2.1,1.4,3.8,3.9,3.8
				c2.6,0,4-1.8,4-3.8C260.4,281.5,259,279.8,256.4,279.8z"/>
		</g>
	</g>
	<g>
		<g>
			<path class="st11" d="M252.2,351.2c0-2-1.3-3.1-3.6-3.1h-3.1v-2.2h3.2c1.9,0,3-1,3-2.8c0-1.7-1.4-2.8-3.4-2.8
				c-2.1,0-3.1,1.2-3.4,2.7h-2.4c0.1-2.3,1.9-4.8,5.7-4.8c3.7,0,5.8,2,5.8,4.9c0,2.2-1.4,3.4-2.5,3.8c1.3,0.4,3,1.7,3,4.5
				c0,3-2.3,5.1-6.3,5.1c-4.2,0-6.1-2.6-6.3-5h2.4c0.3,1.4,1.4,2.8,3.9,2.8C250.6,354.3,252.2,353.1,252.2,351.2z"/>
			<path class="st11" d="M271.3,344.6v5.4c0,4.2-2.5,6.5-6.2,6.5c-3.7,0-6.2-2.2-6.2-6.5v-5.4c0-4.1,2.4-6.5,6.2-6.5
				S271.3,340.5,271.3,344.6z M268.9,350v-5.3c0-2.5-1.3-4.3-3.8-4.3s-3.8,1.8-3.8,4.3v5.3c0,2.5,1.3,4.3,3.8,4.3
				S268.9,352.4,268.9,350z"/>
		</g>
	</g>
	<g>
		<g>
			<path class="st11" d="M181.9,398.7v-15l-4.4,2.5V384l5-3.1h1.8v17.8H181.9z"/>
			<path class="st11" d="M190.2,390.9V381h10.9v2.2h-8.6v5.1c0.7-0.7,1.9-1.3,3.6-1.3c3,0,5.7,2.1,5.7,5.8v0.3
				c0,3.4-2.5,5.9-6.2,5.9c-4.1,0-6-2.5-6.2-5.2h2.4c0.2,1.2,1.1,3,3.8,3c2.3,0,3.8-1.5,3.8-3.7v-0.2c0-2.2-1.5-3.7-3.8-3.7
				c-2.2,0-3.1,1.2-3.3,1.7H190.2z"/>
		</g>
	</g>
	<g>
		<g>
			<path class="st11" d="M309.9,398.1v-15l-4.4,2.5v-2.3l5-3.1h1.8v17.8H309.9z"/>
			<path class="st11" d="M330.2,386.6v5.4c0,4.2-2.5,6.5-6.2,6.5c-3.7,0-6.2-2.2-6.2-6.5v-5.4c0-4.1,2.4-6.5,6.2-6.5
				S330.2,382.5,330.2,386.6z M327.8,391.9v-5.3c0-2.5-1.3-4.3-3.8-4.3s-3.8,1.8-3.8,4.3v5.3c0,2.5,1.3,4.3,3.8,4.3
				S327.8,394.4,327.8,391.9z"/>
		</g>
	</g>
	<g>
		<g>
			<path class="st11" d="M251.7,471.8v-9.9h10.9v2.2H254v5.1c0.7-0.7,1.9-1.3,3.6-1.3c3,0,5.7,2.1,5.7,5.8v0.3
				c0,3.4-2.5,5.9-6.2,5.9c-4.1,0-6-2.5-6.2-5.2h2.4c0.2,1.2,1.1,3,3.8,3c2.3,0,3.8-1.5,3.8-3.7v-0.2c0-2.2-1.5-3.7-3.8-3.7
				c-2.2,0-3.1,1.2-3.3,1.7H251.7z"/>
		</g>
	</g>
	
		<ellipse transform="matrix(0.7071 -0.7071 0.7071 0.7071 -162.4006 190.3283)" class="st7" cx="148.5" cy="291.2" rx="148.5" ry="148.5"/>
	
		<ellipse transform="matrix(0.7071 -0.7071 0.7071 0.7071 -98.6482 344.2402)" class="st4" cx="366.2" cy="291.2" rx="148.5" ry="148.5"/>
	
		<ellipse transform="matrix(0.7071 -0.7071 0.7071 0.7071 -259.2115 320.247)" class="st0" cx="257" cy="473" rx="148.5" ry="148.5"/>
</g>
</svg>
