<?xml version="1.0" encoding="utf-8"?>
<!-- Generator: Adobe Illustrator 24.2.3, SVG Export Plug-In . SVG Version: 6.00 Build 0)  -->
<svg version="1.1" id="Слой_1" xmlns="http://www.w3.org/2000/svg" xmlns:xlink="http://www.w3.org/1999/xlink" x="0px" y="0px"
	 viewBox="0 0 900 473.7" style="enable-background:new 0 0 900 473.7;" xml:space="preserve">
<style type="text/css">
	.st0{fill:none;stroke:#4533F0;stroke-width:5;stroke-miterlimit:10;}
	.st1{fill:none;stroke:#4533F0;stroke-width:3;stroke-miterlimit:10;}
	.st2{fill:#4533F0;}
	.st3{fill:none;stroke:#2C4942;stroke-width:5;stroke-miterlimit:10;}
	.st4{fill:none;stroke:#FF91B6;stroke-width:5;stroke-miterlimit:10;}
	.st5{fill:none;stroke:#2C4942;stroke-width:3;stroke-miterlimit:10;}
	.st6{fill:none;stroke:#2C4942;stroke-width:2;stroke-miterlimit:10;}
	.st7{fill:none;stroke:#00D972;stroke-width:5;stroke-miterlimit:10;}
	.st8{fill:#00D972;stroke:#2C4942;stroke-width:5;stroke-miterlimit:10;}
	.st9{fill:#00D972;stroke:#FF91B6;stroke-width:5;stroke-miterlimit:10;}
	.st10{fill:#FFFFFF;stroke:#4533F0;stroke-width:5;stroke-miterlimit:10;}
	.st11{fill:#2C4942;}
	.st12{fill:#FFFFFF;}
	.st13{fill:none;stroke:#2C4942;stroke-miterlimit:10;}
	.st14{fill:#FFFFFF;stroke:#4533F0;stroke-miterlimit:10;}
	.st15{fill:#FFFFFF;stroke:#4533F0;stroke-width:2;stroke-miterlimit:10;}
	.st16{fill:none;stroke:#2C4942;stroke-miterlimit:10;stroke-dasharray:5.0085,6.0101;}
	.st17{fill:none;stroke:#2C4942;stroke-miterlimit:10;stroke-dasharray:4.9133,5.896;}
	.st18{fill:none;stroke:#2C4942;stroke-miterlimit:10;stroke-dasharray:5,6;}
	.st19{fill:none;stroke:#2C4942;stroke-miterlimit:10;stroke-dasharray:4.4881,5.3857;}
	.st20{fill:none;stroke:#2C4942;stroke-miterlimit:10;stroke-dasharray:4.913,5.8956;}
	.st21{fill:none;stroke:#2C4942;stroke-width:2;stroke-miterlimit:10;stroke-dasharray:5,6;}
	.st22{fill:#4533F0;stroke:#2C4942;stroke-width:2;stroke-miterlimit:10;}
	.st23{fill:none;stroke:#4533F0;stroke-width:2;stroke-miterlimit:10;}
	.st24{fill:#4533F0;stroke:#2C4942;stroke-width:5;stroke-miterlimit:10;}
	.st25{fill:#FF91B6;stroke:#2C4942;stroke-width:5;stroke-miterlimit:10;}
	.st26{fill:#FF91B6;}
	.st27{fill:#00D972;}
	.st28{fill:none;stroke:#2C4942;stroke-width:2;stroke-miterlimit:10;stroke-dasharray:4.9693,5.9632;}
	.st29{fill:none;stroke:#2C4942;stroke-width:2;stroke-miterlimit:10;stroke-dasharray:5.0861,6.1033;}
	.st30{fill:none;stroke:#2C4942;stroke-width:2;stroke-miterlimit:10;stroke-dasharray:4.9992,5.999;}
	.st31{fill:none;stroke:#2C4942;stroke-width:2;stroke-miterlimit:10;stroke-dasharray:5.0096,6.0116;}
	.st32{fill:#4533F0;stroke:#2C4942;stroke-width:4;stroke-miterlimit:10;}
	.st33{fill:#FFFFFF;stroke:#2C4942;stroke-width:4;stroke-miterlimit:10;}
	.st34{fill:#2C4942;stroke:#2C4942;stroke-width:4;stroke-miterlimit:10;}
	.st35{fill:#2C4942;stroke:#2C4942;stroke-miterlimit:10;}
	.st36{fill:none;stroke:#FF91B6;stroke-width:2;stroke-miterlimit:10;}
	.st37{fill:#FFFFFF;stroke:#2C4942;stroke-miterlimit:10;}
	.st38{fill:none;}
	.st39{fill:#4533F0;stroke:#FF91B6;stroke-width:5;stroke-miterlimit:10;}
	.st40{fill:#4533F0;stroke:#00D972;stroke-width:5;stroke-miterlimit:10;}
	.st41{fill:#FFFFFF;stroke:#2C4942;stroke-width:5;stroke-miterlimit:10;}
	.st42{fill:#FFFFFF;stroke:#FF91B6;stroke-width:5;stroke-miterlimit:10;}
	.st43{fill:#00D972;stroke:#2C4942;stroke-miterlimit:10;}
	.st44{fill:#4533F0;stroke:#FFFFFF;stroke-width:2;stroke-miterlimit:10;}
	.st45{fill:#D5DBD9;stroke:#FFFFFF;stroke-width:2;stroke-miterlimit:10;}
	.st46{fill:none;stroke:#D5DBD9;stroke-width:5;stroke-miterlimit:10;}
	.st47{fill:#D5DBD9;stroke:#FF91B6;stroke-width:2;stroke-miterlimit:10;}
	.st48{fill:#D5DBD9;}
	.st49{fill:#4533F0;stroke:#FFFFFF;stroke-miterlimit:10;}
</style>
<g>
	<rect x="0" y="101.3" class="st10" width="145" height="72.5"/>
	<rect x="145" y="101.3" class="st10" width="145" height="72.5"/>
	<rect x="290" y="101.3" class="st10" width="145" height="72.5"/>
	<rect x="435" y="101.3" class="st10" width="145" height="72.5"/>
	<rect x="580" y="101.3" class="st10" width="145" height="72.5"/>
	<g>
		<g>
			<path class="st11" d="M347.8,74.2v-21l-6.2,3.6v-3.2l7-4.3h2.5v25H347.8z"/>
			<path class="st11" d="M376.3,58v7.6c0,6-3.5,9.1-8.7,9.1s-8.7-3.1-8.7-9.1V58c0-5.7,3.4-9.1,8.7-9.1S376.3,52.3,376.3,58z
				 M372.9,65.6v-7.5c0-3.5-1.8-6-5.3-6c-3.5,0-5.3,2.6-5.3,6v7.5c0,3.5,1.8,6,5.3,6C371.1,71.6,372.9,69,372.9,65.6z"/>
		</g>
	</g>
	<g>
		<g>
			<path class="st11" d="M83.1,140.5H65.6v-2.1l8.4-8.3c2.7-2.7,4.2-4.5,4.2-7.2c0-2.7-1.8-4.6-4.6-4.6s-4.6,2-4.6,4.9v1.6h-3.3
				v-1.6c0-4.6,3-7.9,7.9-7.9c5,0,8,3.3,8,7.7c0,4-2.4,6.4-5.4,9.4l-5.3,5.1h12.1V140.5z"/>
		</g>
	</g>
	<g>
		<g>
			<line class="st6" x1="2.2" y1="80" x2="722.8" y2="80"/>
			<g>
				<polygon class="st11" points="8.8,88.2 10.2,86.7 2.9,80 10.2,73.3 8.8,71.8 0,80 				"/>
			</g>
			<g>
				<polygon class="st11" points="716.1,88.2 714.8,86.7 722,80 714.8,73.3 716.1,71.8 724.9,80 				"/>
			</g>
		</g>
	</g>
	<rect x="290" y="331.6" class="st10" width="145" height="72.5"/>
	<g>
		<g>
			<path class="st11" d="M219.6,305c-5.7,0-8.9-3.6-8.9-8.5c0-3.8,1.8-6.3,4-9.2l5.8-7.6h4l-7.2,9.2c0.8-0.5,1.9-0.7,3.3-0.7
				c4.6,0,7.9,3.2,7.9,8.3C228.6,301.3,225.3,305,219.6,305z M219.6,291.1c-3.4,0-5.5,2.3-5.5,5.5c0,2.9,2,5.4,5.5,5.4
				c3.6,0,5.6-2.5,5.6-5.4C225.2,293.4,223.3,291.1,219.6,291.1z"/>
		</g>
	</g>
	<g>
		<g>
			<line class="st6" x1="2.2" y1="310.3" x2="432.8" y2="310.3"/>
			<g>
				<polygon class="st11" points="8.8,318.5 10.2,317 2.9,310.3 10.2,303.6 8.8,302.1 0,310.3 				"/>
			</g>
			<g>
				<polygon class="st11" points="426.2,318.5 424.8,317 432,310.3 424.8,303.6 426.2,302.1 435,310.3 				"/>
			</g>
		</g>
	</g>
	<g>
		<g>
			<line class="st6" x1="5.2" y1="145.5" x2="138.8" y2="145.5"/>
			<g>
				<polygon class="st11" points="11.8,153.7 13.2,152.2 5.9,145.5 13.2,138.8 11.8,137.3 3,145.5 				"/>
			</g>
			<g>
				<polygon class="st11" points="132.2,153.7 130.8,152.2 138.1,145.5 130.8,138.8 132.2,137.3 141,145.5 				"/>
			</g>
		</g>
	</g>
	<rect x="0" y="331.6" class="st10" width="145" height="72.5"/>
	<rect x="145" y="331.6" class="st10" width="145" height="72.5"/>
</g>
</svg>
