<?xml version="1.0" encoding="UTF-8" standalone="no"?>
<svg
   xmlns:dc="http://purl.org/dc/elements/1.1/"
   xmlns:cc="http://creativecommons.org/ns#"
   xmlns:rdf="http://www.w3.org/1999/02/22-rdf-syntax-ns#"
   xmlns:svg="http://www.w3.org/2000/svg"
   xmlns="http://www.w3.org/2000/svg"
   xml:space="preserve"
   enable-background="new 0 0 329.14 323.945"
   viewBox="0 0 329.14 323.945"
   height="323.945px"
   width="329.14px"
   y="0px"
   x="0px"
   id="svg2"
   version="1.1"><metadata
     id="metadata29"><rdf:RDF><cc:Work
         rdf:about=""><dc:format>image/svg+xml</dc:format><dc:type
           rdf:resource="http://purl.org/dc/dcmitype/StillImage" /><dc:title></dc:title></cc:Work></rdf:RDF></metadata><defs
     id="defs27" /><path
     id="path4"
     d=""
     fill="none" /><path
     d="M24.848,310.451"
     id="path2178" /><path
     id="path7"
     d=""
     fill="none" /><path
     d="M322.392,292.299"
     id="path2180" /><path
     id="path1477"
     style="fill:#83dc32;fill-opacity:0.92940004;stroke:#000000;stroke-width:2"
     d="m 300.698,20.93507 c 0.10209,27.074995 0.20211,54.149997 0.302,81.225 -16.289,62.374 -56.515,118.858 -109.964,134.819 -58.305,17.41 -122.409996,-1.684 -143.279996,-38.131 -0.275546,-59.15638 -0.243386,-118.301945 0.593,-177.451" /><path
     d=""
     id="path12"
     style="fill:none" /><path
     id="path2208"
     d="m 300.313,105.30207 c -1.817,-0.475 -2.907,-2.334 -2.433,-4.151 0.474,-1.817 2.335,-2.907 4.151,-2.433 1.817,0.475 2.907,2.335 2.433,4.151 -0.474,1.818 -2.335,2.908 -4.151,2.433 z"
     style="fill:#0000ff;stroke:#0000ff;stroke-linejoin:round" /><path
     id="path2208_1_"
     d="m 46.254004,195.87207 c 1.63,-0.934 3.71,-0.368 4.644,1.262 0.933,1.63 0.367,3.71 -1.263,4.643 -1.629,0.934 -3.709,0.368 -4.643,-1.262 -0.932,-1.631 -0.368,-3.711 1.262,-4.643 z"
     style="fill:#0000ff;stroke:#0000ff;stroke-linejoin:round" /><path
     id="path2182"
     d="M 54.411004,650.30407"
     style="fill:#0000ff;stroke:#0000ff;stroke-linejoin:round" /><g
     id="g2500"
     transform="translate(307.5144,-111.45673)" /><path
     id="path4193"
     d="m 301,102.16007 c -16.289,62.374 -56.515,118.858 -109.964,134.819 -58.305,17.41 -122.409996,-1.684 -143.279996,-38.131"
     style="fill:none;fill-opacity:0.92940004;stroke:#0000ff;stroke-width:3;stroke-miterlimit:4;stroke-dasharray:none;stroke-opacity:1" /><path
     d="M12.549-16.585l0.977,1.259L12.549-16.585z"
     fill="#8F8F8F"
     id="path6" /><path
     d="M-7.684,294.956"
     stroke="#000000"
     id="path4332" /><path
     d="M22.677,34.424l10.16,13.003L22.621,1.844L12.562,47.485L22.677,34.424z"
     stroke="#000000"
     id="path4507_1_" /><path
     d="M23.217,346.006"
     stroke="#000000"
     id="path1329" /><line
     style="fill:none;stroke:#000000;stroke-width:4"
     id="line22"
     y2="323.26028"
     x2="22.677"
     y1="34.424"
     x1="22.677" /><line
     style="fill:none;stroke:#000000;stroke-width:4"
     id="line24"
     y2="292.82001"
     x2="291.82599"
     y1="292.82001"
     x1="-0.68399751" /><path
     d="M292.987,292.56l-10.115,13.061l35.459-13.131l-35.504-12.931L292.987,292.56z"
     stroke="#000000"
     id="path4507_2_" /></svg>