<?xml version="1.0" encoding="utf-8"?>
<!-- Generator: Adobe Illustrator 24.2.3, SVG Export Plug-In . SVG Version: 6.00 Build 0)  -->
<svg version="1.1" id="Слой_1" xmlns="http://www.w3.org/2000/svg" xmlns:xlink="http://www.w3.org/1999/xlink" x="0px" y="0px"
	 viewBox="0 0 900 608.73" style="enable-background:new 0 0 900 608.73;" xml:space="preserve">
<style type="text/css">
	.st0{fill:#D2DCDC;stroke:#2D4942;stroke-width:3;stroke-miterlimit:10;}
	.st1{fill:#FD93B7;stroke:#2D4942;stroke-width:3;stroke-miterlimit:10;}
	.st2{fill:#22D876;stroke:#2D4942;stroke-width:3;stroke-miterlimit:10;}
	.st3{fill:#4042EE;stroke:#2D4942;stroke-width:3;stroke-miterlimit:10;}
	.st4{fill:none;stroke:#2D4942;stroke-width:3;stroke-miterlimit:10;}
	.st5{fill:#2D4942;}
	.st6{fill:#FD93B7;}
	.st7{fill:#B5BCBC;}
	.st8{fill:#22D876;}
	.st9{fill:none;stroke:#D2DCDC;stroke-miterlimit:10;}
	.st10{fill:#22D876;stroke:#D2DCDC;stroke-miterlimit:10;}
	.st11{fill:#4042EE;}
	.st12{fill:none;stroke:#D2DCDC;stroke-miterlimit:10;stroke-dasharray:5.8684,9.7807;}
	.st13{fill:#E5EA18;}
	.st14{fill:none;stroke:#4042EE;stroke-width:4;stroke-miterlimit:10;}
	.st15{fill:none;stroke:#4042EE;stroke-width:4;stroke-miterlimit:10;stroke-dasharray:7.9356,7.9356;}
	.st16{fill:none;stroke:#4042EE;stroke-width:4;stroke-miterlimit:10;stroke-dasharray:8.2022,8.2022;}
	.st17{fill:none;stroke:#FD93B7;stroke-width:4;stroke-miterlimit:10;}
	.st18{fill:none;stroke:#4042EE;stroke-width:4;stroke-miterlimit:10;stroke-dasharray:7.1107,7.1107;}
	.st19{fill:none;stroke:#22D876;stroke-width:4;stroke-miterlimit:10;}
	.st20{fill:none;stroke:#FD93B7;stroke-width:4;stroke-miterlimit:10;stroke-dasharray:8.427,8.427;}
	.st21{fill:none;stroke:#FD93B7;stroke-width:4;stroke-miterlimit:10;stroke-dasharray:8.1734,8.1734;}
	.st22{fill:none;stroke:#4042EE;stroke-width:4;stroke-miterlimit:10;stroke-dasharray:7.9685,7.9685;}
	.st23{fill:none;stroke:#E2F534;stroke-width:4;stroke-miterlimit:10;}
	.st24{fill:#E2F534;}
	.st25{fill:none;stroke:#D2DCDC;stroke-miterlimit:10;stroke-dasharray:6.4274,10.7123;}
	.st26{fill:none;stroke:#2D4942;stroke-width:2;stroke-miterlimit:10;}
	.st27{fill:none;stroke:#1D2335;stroke-width:2;stroke-miterlimit:10;}
	.st28{fill:#22D876;stroke:#1D2335;stroke-width:2;stroke-miterlimit:10;}
	.st29{fill:#FD93B7;stroke:#2D4942;stroke-width:2;stroke-miterlimit:10;}
	.st30{fill:#22D876;stroke:#2D4942;stroke-width:2;stroke-miterlimit:10;}
	.st31{fill:#4042EE;stroke:#2D4942;stroke-width:2;stroke-miterlimit:10;}
	.st32{fill:#FFFFFF;}
	.st33{fill:none;stroke:#D2DCDC;stroke-width:2;stroke-miterlimit:10;}
	.st34{fill:#D2DCDC;}
	.st35{fill:#F6F6F6;}
	.st36{fill:#D2DCDC;stroke:#2D4942;stroke-miterlimit:10;}
	.st37{fill:none;stroke:#2D4942;stroke-miterlimit:10;}
	.st38{fill:#FD93B7;stroke:#2D4942;stroke-miterlimit:10;}
	.st39{fill:#22D876;stroke:#2D4942;stroke-miterlimit:10;}
	.st40{fill:#4042EE;stroke:#2D4942;stroke-miterlimit:10;}
	.st41{fill:#E2F534;stroke:#2D4942;stroke-miterlimit:10;}
	.st42{fill:none;stroke:#2D4942;stroke-miterlimit:10;stroke-dasharray:1.917,1.917;}
	.st43{fill:none;stroke:#2D4942;stroke-miterlimit:10;stroke-dasharray:2.0323,2.0323;}
	.st44{fill:none;stroke:#2D4942;stroke-miterlimit:10;stroke-dasharray:1.8074,1.8074;}
	.st45{fill:none;stroke:#2D4942;stroke-miterlimit:10;stroke-dasharray:1.3629,1.3629;}
	.st46{fill:none;stroke:#2D4942;stroke-miterlimit:10;stroke-dasharray:2.0355,2.0355;}
</style>
<g>
	<rect x="0" y="546.14" class="st29" width="48.33" height="48.33"/>
	<g>
		<path class="st5" d="M24.26,579.98v-15.9l-4.67,2.7v-2.44l5.33-3.26h1.91v18.9H24.26z"/>
	</g>
	<rect x="48.33" y="546.14" class="st29" width="48.33" height="48.33"/>
	<g>
		<path class="st5" d="M79.52,579.98H66.3v-1.59l6.36-6.28c2.04-2.04,3.21-3.42,3.21-5.46c0-2.07-1.33-3.47-3.5-3.47
			c-2.17,0-3.5,1.54-3.5,3.68v1.22h-2.52v-1.25c0-3.45,2.28-5.99,6.02-5.99c3.76,0,6.07,2.49,6.07,5.8c0,3-1.8,4.85-4.11,7.1
			l-3.98,3.9h9.17V579.98z"/>
	</g>
	<rect x="96.66" y="546.14" class="st29" width="48.33" height="48.33"/>
	<g>
		<path class="st5" d="M124.83,574.68c0-2.09-1.4-3.26-3.84-3.26h-3.31v-2.33h3.39c1.99,0,3.21-1.06,3.21-2.97
			c0-1.85-1.48-2.97-3.6-2.97c-2.23,0-3.31,1.27-3.58,2.84h-2.54c0.13-2.41,2.01-5.14,6.1-5.14c3.95,0,6.18,2.17,6.18,5.17
			c0,2.33-1.51,3.6-2.62,4.08c1.4,0.4,3.23,1.78,3.23,4.74c0,3.23-2.49,5.46-6.71,5.46c-4.48,0-6.44-2.76-6.68-5.3h2.57
			c0.29,1.46,1.54,2.97,4.11,2.97C123.21,577.96,124.83,576.75,124.83,574.68z"/>
	</g>
	<rect x="144.99" y="546.14" class="st30" width="48.33" height="48.33"/>
	<g>
		<path class="st5" d="M173.27,574.17v5.8h-2.49v-5.8h-9.54v-1.4l9.22-11.61h2.81v10.79h4v2.23H173.27z M170.77,571.95v-7.82
			l-6.15,7.82H170.77z"/>
	</g>
	<rect x="193.32" y="546.14" class="st31" width="48.33" height="48.33"/>
	<g>
		<path class="st32" d="M212.08,579.98l9.22-16.49h-10.28v-2.33h13.2v1.93l-9.33,16.88H212.08z"/>
	</g>
	<rect x="241.65" y="546.14" class="st31" width="48.33" height="48.33"/>
	<g>
		<path class="st32" d="M260.21,571.66v-10.5h11.56v2.33h-9.12v5.46c0.74-0.74,1.99-1.38,3.82-1.38c3.23,0,6.02,2.23,6.02,6.2v0.29
			c0,3.66-2.62,6.23-6.6,6.23c-4.32,0-6.39-2.65-6.6-5.51h2.52c0.19,1.25,1.17,3.18,4.08,3.18c2.41,0,4.06-1.62,4.06-3.9v-0.27
			c0-2.38-1.64-3.9-4.06-3.9c-2.36,0-3.26,1.33-3.55,1.75H260.21z"/>
	</g>
	<rect x="289.98" y="546.14" class="st31" width="48.33" height="48.33"/>
	<g>
		<path class="st32" d="M320.54,566.04c0,2.52-1.64,3.84-3,4.24c1.46,0.45,3.37,1.91,3.37,4.61c0,3.18-2.46,5.41-6.47,5.41h-0.72
			c-3.9,0-6.33-2.23-6.33-5.41c0-2.7,1.91-4.16,3.37-4.61c-1.35-0.4-3-1.72-3-4.24c0-2.97,2.15-5.2,6.04-5.2h0.69
			C318.42,560.84,320.54,563.07,320.54,566.04z M313.75,578.02h0.79c2.25,0,3.76-1.3,3.76-3.29c0-1.99-1.51-3.29-3.76-3.29h-0.79
			c-2.23,0-3.76,1.3-3.76,3.29C309.99,576.72,311.52,578.02,313.75,578.02z M313.8,569.17h0.69c2.09,0,3.5-1.19,3.5-3.02
			c0-1.83-1.41-3.02-3.5-3.02h-0.69c-2.09,0-3.5,1.19-3.5,3.02C310.31,567.97,311.71,569.17,313.8,569.17z"/>
	</g>
	<rect x="338.31" y="546.14" class="st31" width="48.33" height="48.33"/>
	<g>
		<path class="st32" d="M362.51,560.84c4.29,0,6.73,2.7,6.73,6.41c0,2.86-1.38,4.8-3.05,6.97l-4.4,5.75h-3.05l5.49-6.97
			c-0.64,0.34-1.46,0.56-2.49,0.56c-3.5,0-6.02-2.44-6.02-6.31C355.72,563.65,358.24,560.84,362.51,560.84z M362.51,571.39
			c2.54,0,4.16-1.78,4.16-4.13c0-2.23-1.51-4.08-4.16-4.08c-2.76,0-4.21,1.86-4.21,4.08C358.29,569.62,359.75,571.39,362.51,571.39z
			"/>
	</g>
	<rect x="386.64" y="546.14" class="st31" width="48.33" height="48.33"/>
	<g>
		<path class="st32" d="M410.78,580.3c-4.29,0-6.73-2.7-6.73-6.41c0-2.86,1.38-4.8,3.05-6.97l4.4-5.75h3.05l-5.49,6.97
			c0.64-0.34,1.46-0.56,2.49-0.56c3.5,0,6.02,2.44,6.02,6.31C417.57,577.49,415.05,580.3,410.78,580.3z M410.78,569.75
			c-2.54,0-4.16,1.78-4.16,4.13c0,2.23,1.51,4.08,4.16,4.08c2.76,0,4.21-1.86,4.21-4.08C415,571.52,413.54,569.75,410.78,569.75z"/>
	</g>
	<rect x="0" y="487.04" class="st30" width="48.33" height="48.33"/>
	<g>
		<path class="st5" d="M28.28,515.08v5.8h-2.49v-5.8h-9.54v-1.4l9.22-11.61h2.81v10.79h4v2.23H28.28z M25.78,512.85v-7.82
			l-6.15,7.82H25.78z"/>
	</g>
	<rect x="48.33" y="487.04" class="st29" width="48.33" height="48.33"/>
	<g>
		<path class="st5" d="M79.52,520.88H66.3v-1.59l6.36-6.28c2.04-2.04,3.21-3.42,3.21-5.46c0-2.07-1.33-3.47-3.5-3.47
			c-2.17,0-3.5,1.54-3.5,3.68v1.22h-2.52v-1.25c0-3.45,2.28-5.99,6.02-5.99c3.76,0,6.07,2.49,6.07,5.8c0,3-1.8,4.85-4.11,7.1
			l-3.98,3.9h9.17V520.88z"/>
	</g>
	<rect x="96.66" y="487.04" class="st29" width="48.33" height="48.33"/>
	<g>
		<path class="st5" d="M124.83,515.58c0-2.09-1.4-3.26-3.84-3.26h-3.31v-2.33h3.39c1.99,0,3.21-1.06,3.21-2.97
			c0-1.85-1.48-2.97-3.6-2.97c-2.23,0-3.31,1.27-3.58,2.84h-2.54c0.13-2.41,2.01-5.14,6.1-5.14c3.95,0,6.18,2.17,6.18,5.17
			c0,2.33-1.51,3.6-2.62,4.08c1.4,0.4,3.23,1.78,3.23,4.74c0,3.23-2.49,5.46-6.71,5.46c-4.48,0-6.44-2.76-6.68-5.3h2.57
			c0.29,1.46,1.54,2.97,4.11,2.97C123.21,518.87,124.83,517.65,124.83,515.58z"/>
	</g>
	<rect x="144.99" y="487.04" class="st29" width="48.33" height="48.33"/>
	<g>
		<path class="st5" d="M169.25,520.88v-15.9l-4.67,2.7v-2.44l5.33-3.26h1.91v18.9H169.25z"/>
	</g>
	<rect x="193.32" y="487.04" class="st31" width="48.33" height="48.33"/>
	<g>
		<path class="st32" d="M212.08,520.88l9.22-16.49h-10.28v-2.33h13.2V504l-9.33,16.88H212.08z"/>
	</g>
	<rect x="241.65" y="487.04" class="st31" width="48.33" height="48.33"/>
	<g>
		<path class="st32" d="M260.21,512.56v-10.5h11.56v2.33h-9.12v5.46c0.74-0.74,1.99-1.38,3.82-1.38c3.23,0,6.02,2.23,6.02,6.2v0.29
			c0,3.66-2.62,6.23-6.6,6.23c-4.32,0-6.39-2.65-6.6-5.51h2.52c0.19,1.25,1.17,3.18,4.08,3.18c2.41,0,4.06-1.62,4.06-3.9v-0.27
			c0-2.38-1.64-3.9-4.06-3.9c-2.36,0-3.26,1.33-3.55,1.75H260.21z"/>
	</g>
	<rect x="289.98" y="487.04" class="st31" width="48.33" height="48.33"/>
	<g>
		<path class="st32" d="M320.54,506.94c0,2.52-1.64,3.84-3,4.24c1.46,0.45,3.37,1.91,3.37,4.61c0,3.18-2.46,5.41-6.47,5.41h-0.72
			c-3.9,0-6.33-2.23-6.33-5.41c0-2.7,1.91-4.16,3.37-4.61c-1.35-0.4-3-1.72-3-4.24c0-2.97,2.15-5.2,6.04-5.2h0.69
			C318.42,501.74,320.54,503.97,320.54,506.94z M313.75,518.92h0.79c2.25,0,3.76-1.3,3.76-3.29c0-1.99-1.51-3.29-3.76-3.29h-0.79
			c-2.23,0-3.76,1.3-3.76,3.29C309.99,517.62,311.52,518.92,313.75,518.92z M313.8,510.07h0.69c2.09,0,3.5-1.19,3.5-3.02
			c0-1.83-1.41-3.02-3.5-3.02h-0.69c-2.09,0-3.5,1.19-3.5,3.02C310.31,508.87,311.71,510.07,313.8,510.07z"/>
	</g>
	<rect x="338.31" y="487.04" class="st31" width="48.33" height="48.33"/>
	<g>
		<path class="st32" d="M362.51,501.74c4.29,0,6.73,2.7,6.73,6.42c0,2.86-1.38,4.8-3.05,6.97l-4.4,5.75h-3.05l5.49-6.97
			c-0.64,0.34-1.46,0.56-2.49,0.56c-3.5,0-6.02-2.44-6.02-6.31C355.72,504.55,358.24,501.74,362.51,501.74z M362.51,512.29
			c2.54,0,4.16-1.78,4.16-4.13c0-2.23-1.51-4.08-4.16-4.08c-2.76,0-4.21,1.86-4.21,4.08C358.29,510.52,359.75,512.29,362.51,512.29z
			"/>
	</g>
	<rect x="386.64" y="487.04" class="st31" width="48.33" height="48.33"/>
	<g>
		<path class="st32" d="M410.78,521.2c-4.29,0-6.73-2.7-6.73-6.41c0-2.86,1.38-4.8,3.05-6.97l4.4-5.75h3.05l-5.49,6.97
			c0.64-0.34,1.46-0.56,2.49-0.56c3.5,0,6.02,2.44,6.02,6.31C417.57,518.39,415.05,521.2,410.78,521.2z M410.78,510.65
			c-2.54,0-4.16,1.78-4.16,4.13c0,2.23,1.51,4.08,4.16,4.08c2.76,0,4.21-1.86,4.21-4.08C415,512.43,413.54,510.65,410.78,510.65z"/>
	</g>
	<rect x="0" y="427.94" class="st30" width="48.33" height="48.33"/>
	<g>
		<path class="st5" d="M28.28,455.98v5.8h-2.49v-5.8h-9.54v-1.4l9.22-11.61h2.81v10.79h4v2.23H28.28z M25.78,453.75v-7.82
			l-6.15,7.82H25.78z"/>
	</g>
	<rect x="48.33" y="427.94" class="st29" width="48.33" height="48.33"/>
	<g>
		<path class="st5" d="M79.52,461.78H66.3v-1.59l6.36-6.28c2.04-2.04,3.21-3.42,3.21-5.46c0-2.07-1.33-3.47-3.5-3.47
			c-2.17,0-3.5,1.54-3.5,3.68v1.22h-2.52v-1.25c0-3.45,2.28-5.99,6.02-5.99c3.76,0,6.07,2.49,6.07,5.8c0,3-1.8,4.85-4.11,7.1
			l-3.98,3.9h9.17V461.78z"/>
	</g>
	<rect x="96.66" y="427.94" class="st29" width="48.33" height="48.33"/>
	<g>
		<path class="st5" d="M124.83,456.48c0-2.09-1.4-3.26-3.84-3.26h-3.31v-2.33h3.39c1.99,0,3.21-1.06,3.21-2.97
			c0-1.85-1.48-2.97-3.6-2.97c-2.23,0-3.31,1.27-3.58,2.84h-2.54c0.13-2.41,2.01-5.14,6.1-5.14c3.95,0,6.18,2.17,6.18,5.17
			c0,2.33-1.51,3.6-2.62,4.08c1.4,0.4,3.23,1.78,3.23,4.74c0,3.23-2.49,5.46-6.71,5.46c-4.48,0-6.44-2.76-6.68-5.3h2.57
			c0.29,1.46,1.54,2.97,4.11,2.97C123.21,459.77,124.83,458.55,124.83,456.48z"/>
	</g>
	<rect x="144.99" y="427.94" class="st29" width="48.33" height="48.33"/>
	<g>
		<path class="st5" d="M169.25,461.78v-15.9l-4.67,2.7v-2.44l5.33-3.26h1.91v18.9H169.25z"/>
	</g>
	<rect x="193.32" y="427.94" class="st31" width="48.33" height="48.33"/>
	<g>
		<path class="st32" d="M212.08,461.78l9.22-16.49h-10.28v-2.33h13.2v1.93l-9.33,16.88H212.08z"/>
	</g>
	<rect x="241.65" y="427.94" class="st31" width="48.33" height="48.33"/>
	<g>
		<path class="st32" d="M260.21,453.46v-10.5h11.56v2.33h-9.12v5.46c0.74-0.74,1.99-1.38,3.82-1.38c3.23,0,6.02,2.23,6.02,6.2v0.29
			c0,3.66-2.62,6.23-6.6,6.23c-4.32,0-6.39-2.65-6.6-5.51h2.52c0.19,1.25,1.17,3.18,4.08,3.18c2.41,0,4.06-1.62,4.06-3.9v-0.27
			c0-2.38-1.64-3.9-4.06-3.9c-2.36,0-3.26,1.33-3.55,1.75H260.21z"/>
	</g>
	<rect x="289.98" y="427.94" class="st31" width="48.33" height="48.33"/>
	<g>
		<path class="st32" d="M320.54,447.84c0,2.52-1.64,3.84-3,4.24c1.46,0.45,3.37,1.91,3.37,4.61c0,3.18-2.46,5.41-6.47,5.41h-0.72
			c-3.9,0-6.33-2.23-6.33-5.41c0-2.7,1.91-4.16,3.37-4.61c-1.35-0.4-3-1.72-3-4.24c0-2.97,2.15-5.2,6.04-5.2h0.69
			C318.42,442.65,320.54,444.87,320.54,447.84z M313.75,459.82h0.79c2.25,0,3.76-1.3,3.76-3.29c0-1.99-1.51-3.29-3.76-3.29h-0.79
			c-2.23,0-3.76,1.3-3.76,3.29C309.99,458.52,311.52,459.82,313.75,459.82z M313.8,450.97h0.69c2.09,0,3.5-1.19,3.5-3.02
			c0-1.83-1.41-3.02-3.5-3.02h-0.69c-2.09,0-3.5,1.19-3.5,3.02C310.31,449.78,311.71,450.97,313.8,450.97z"/>
	</g>
	<rect x="338.31" y="427.94" class="st31" width="48.33" height="48.33"/>
	<g>
		<path class="st32" d="M362.51,442.65c4.29,0,6.73,2.7,6.73,6.42c0,2.86-1.38,4.8-3.05,6.97l-4.4,5.75h-3.05l5.49-6.97
			c-0.64,0.34-1.46,0.56-2.49,0.56c-3.5,0-6.02-2.44-6.02-6.31C355.72,445.46,358.24,442.65,362.51,442.65z M362.51,453.19
			c2.54,0,4.16-1.78,4.16-4.13c0-2.23-1.51-4.08-4.16-4.08c-2.76,0-4.21,1.86-4.21,4.08C358.29,451.42,359.75,453.19,362.51,453.19z
			"/>
	</g>
	<rect x="386.64" y="427.94" class="st33" width="48.33" height="48.33"/>
	<g>
		<path class="st34" d="M410.78,462.1c-4.29,0-6.73-2.7-6.73-6.41c0-2.86,1.38-4.8,3.05-6.97l4.4-5.75h3.05l-5.49,6.97
			c0.64-0.34,1.46-0.56,2.49-0.56c3.5,0,6.02,2.44,6.02,6.31C417.57,459.29,415.05,462.1,410.78,462.1z M410.78,451.55
			c-2.54,0-4.16,1.78-4.16,4.13c0,2.23,1.51,4.08,4.16,4.08c2.76,0,4.21-1.86,4.21-4.08C415,453.33,413.54,451.55,410.78,451.55z"/>
	</g>
	<rect x="0" y="368.85" class="st30" width="48.33" height="48.33"/>
	<g>
		<path class="st5" d="M28.28,396.88v5.8h-2.49v-5.8h-9.54v-1.4l9.22-11.61h2.81v10.79h4v2.23H28.28z M25.78,394.65v-7.82
			l-6.15,7.82H25.78z"/>
	</g>
	<rect x="48.33" y="368.85" class="st29" width="48.33" height="48.33"/>
	<g>
		<path class="st5" d="M79.52,402.68H66.3v-1.59l6.36-6.28c2.04-2.04,3.21-3.42,3.21-5.46c0-2.07-1.33-3.47-3.5-3.47
			c-2.17,0-3.5,1.54-3.5,3.68v1.22h-2.52v-1.25c0-3.45,2.28-5.99,6.02-5.99c3.76,0,6.07,2.49,6.07,5.8c0,3-1.8,4.85-4.11,7.1
			l-3.98,3.9h9.17V402.68z"/>
	</g>
	<rect x="96.66" y="368.85" class="st29" width="48.33" height="48.33"/>
	<g>
		<path class="st5" d="M124.83,397.38c0-2.09-1.4-3.26-3.84-3.26h-3.31v-2.33h3.39c1.99,0,3.21-1.06,3.21-2.97
			c0-1.85-1.48-2.97-3.6-2.97c-2.23,0-3.31,1.27-3.58,2.84h-2.54c0.13-2.41,2.01-5.14,6.1-5.14c3.95,0,6.18,2.17,6.18,5.17
			c0,2.33-1.51,3.6-2.62,4.08c1.4,0.4,3.23,1.78,3.23,4.74c0,3.23-2.49,5.46-6.71,5.46c-4.48,0-6.44-2.76-6.68-5.3h2.57
			c0.29,1.46,1.54,2.97,4.11,2.97C123.21,400.67,124.83,399.45,124.83,397.38z"/>
	</g>
	<rect x="144.99" y="368.85" class="st29" width="48.33" height="48.33"/>
	<g>
		<path class="st5" d="M169.25,402.68v-15.9l-4.67,2.7v-2.44l5.33-3.26h1.91v18.9H169.25z"/>
	</g>
	<rect x="193.32" y="368.85" class="st31" width="48.33" height="48.33"/>
	<g>
		<path class="st32" d="M212.08,402.68l9.22-16.49h-10.28v-2.33h13.2v1.93l-9.33,16.88H212.08z"/>
	</g>
	<rect x="241.65" y="368.85" class="st31" width="48.33" height="48.33"/>
	<g>
		<path class="st32" d="M260.21,394.36v-10.5h11.56v2.33h-9.12v5.46c0.74-0.74,1.99-1.38,3.82-1.38c3.23,0,6.02,2.23,6.02,6.2v0.29
			c0,3.66-2.62,6.23-6.6,6.23c-4.32,0-6.39-2.65-6.6-5.51h2.52c0.19,1.25,1.17,3.18,4.08,3.18c2.41,0,4.06-1.62,4.06-3.9v-0.27
			c0-2.38-1.64-3.9-4.06-3.9c-2.36,0-3.26,1.33-3.55,1.75H260.21z"/>
	</g>
	<rect x="289.98" y="368.85" class="st31" width="48.33" height="48.33"/>
	<g>
		<path class="st32" d="M320.54,388.74c0,2.52-1.64,3.84-3,4.24c1.46,0.45,3.37,1.91,3.37,4.61c0,3.18-2.46,5.41-6.47,5.41h-0.72
			c-3.9,0-6.33-2.23-6.33-5.41c0-2.7,1.91-4.16,3.37-4.61c-1.35-0.4-3-1.72-3-4.24c0-2.97,2.15-5.2,6.04-5.2h0.69
			C318.42,383.55,320.54,385.77,320.54,388.74z M313.75,400.72h0.79c2.25,0,3.76-1.3,3.76-3.29c0-1.99-1.51-3.29-3.76-3.29h-0.79
			c-2.23,0-3.76,1.3-3.76,3.29C309.99,399.43,311.52,400.72,313.75,400.72z M313.8,391.87h0.69c2.09,0,3.5-1.19,3.5-3.02
			c0-1.83-1.41-3.02-3.5-3.02h-0.69c-2.09,0-3.5,1.19-3.5,3.02C310.31,390.68,311.71,391.87,313.8,391.87z"/>
	</g>
	<rect x="338.31" y="368.85" class="st33" width="48.33" height="48.33"/>
	<g>
		<path class="st34" d="M362.51,383.55c4.29,0,6.73,2.7,6.73,6.42c0,2.86-1.38,4.8-3.05,6.97l-4.4,5.75h-3.05l5.49-6.97
			c-0.64,0.34-1.46,0.56-2.49,0.56c-3.5,0-6.02-2.44-6.02-6.31C355.72,386.36,358.24,383.55,362.51,383.55z M362.51,394.1
			c2.54,0,4.16-1.78,4.16-4.13c0-2.23-1.51-4.08-4.16-4.08c-2.76,0-4.21,1.86-4.21,4.08C358.29,392.32,359.75,394.1,362.51,394.1z"
			/>
	</g>
	<rect x="386.64" y="368.85" class="st33" width="48.33" height="48.33"/>
	<g>
		<path class="st34" d="M410.78,403c-4.29,0-6.73-2.7-6.73-6.41c0-2.86,1.38-4.8,3.05-6.97l4.4-5.75h3.05l-5.49,6.97
			c0.64-0.34,1.46-0.56,2.49-0.56c3.5,0,6.02,2.44,6.02,6.31C417.57,400.19,415.05,403,410.78,403z M410.78,392.45
			c-2.54,0-4.16,1.78-4.16,4.13c0,2.23,1.51,4.08,4.16,4.08c2.76,0,4.21-1.86,4.21-4.08C415,394.23,413.54,392.45,410.78,392.45z"/>
	</g>
	<rect x="0" y="309.75" class="st30" width="48.33" height="48.33"/>
	<g>
		<path class="st5" d="M28.28,337.78v5.8h-2.49v-5.8h-9.54v-1.4l9.22-11.61h2.81v10.79h4v2.23H28.28z M25.78,335.56v-7.82
			l-6.15,7.82H25.78z"/>
	</g>
	<rect x="48.33" y="309.75" class="st29" width="48.33" height="48.33"/>
	<g>
		<path class="st5" d="M79.52,343.59H66.3V342l6.36-6.28c2.04-2.04,3.21-3.42,3.21-5.46c0-2.07-1.33-3.47-3.5-3.47
			c-2.17,0-3.5,1.54-3.5,3.68v1.22h-2.52v-1.25c0-3.45,2.28-5.99,6.02-5.99c3.76,0,6.07,2.49,6.07,5.8c0,3-1.8,4.85-4.11,7.1
			l-3.98,3.9h9.17V343.59z"/>
	</g>
	<rect x="96.66" y="309.75" class="st29" width="48.33" height="48.33"/>
	<g>
		<path class="st5" d="M124.83,338.29c0-2.09-1.4-3.26-3.84-3.26h-3.31v-2.33h3.39c1.99,0,3.21-1.06,3.21-2.97
			c0-1.85-1.48-2.97-3.6-2.97c-2.23,0-3.31,1.27-3.58,2.84h-2.54c0.13-2.41,2.01-5.14,6.1-5.14c3.95,0,6.18,2.17,6.18,5.17
			c0,2.33-1.51,3.6-2.62,4.08c1.4,0.4,3.23,1.78,3.23,4.74c0,3.23-2.49,5.46-6.71,5.46c-4.48,0-6.44-2.76-6.68-5.3h2.57
			c0.29,1.46,1.54,2.97,4.11,2.97C123.21,341.57,124.83,340.35,124.83,338.29z"/>
	</g>
	<rect x="144.99" y="309.75" class="st29" width="48.33" height="48.33"/>
	<g>
		<path class="st5" d="M169.25,343.59v-15.9l-4.67,2.7v-2.44l5.33-3.26h1.91v18.9H169.25z"/>
	</g>
	<rect x="193.32" y="309.75" class="st31" width="48.33" height="48.33"/>
	<g>
		<path class="st32" d="M212.08,343.59l9.22-16.49h-10.28v-2.33h13.2v1.93l-9.33,16.88H212.08z"/>
	</g>
	<rect x="241.65" y="309.75" class="st31" width="48.33" height="48.33"/>
	<g>
		<path class="st32" d="M260.21,335.26v-10.5h11.56v2.33h-9.12v5.46c0.74-0.74,1.99-1.38,3.82-1.38c3.23,0,6.02,2.23,6.02,6.2v0.29
			c0,3.66-2.62,6.23-6.6,6.23c-4.32,0-6.39-2.65-6.6-5.51h2.52c0.19,1.25,1.17,3.18,4.08,3.18c2.41,0,4.06-1.62,4.06-3.9v-0.27
			c0-2.38-1.64-3.9-4.06-3.9c-2.36,0-3.26,1.33-3.55,1.75H260.21z"/>
	</g>
	<rect x="289.98" y="309.75" class="st33" width="48.33" height="48.33"/>
	<g>
		<path class="st34" d="M320.54,329.65c0,2.52-1.64,3.84-3,4.24c1.46,0.45,3.37,1.91,3.37,4.61c0,3.18-2.46,5.41-6.47,5.41h-0.72
			c-3.9,0-6.33-2.23-6.33-5.41c0-2.7,1.91-4.16,3.37-4.61c-1.35-0.4-3-1.72-3-4.24c0-2.97,2.15-5.2,6.04-5.2h0.69
			C318.42,324.45,320.54,326.68,320.54,329.65z M313.75,341.63h0.79c2.25,0,3.76-1.3,3.76-3.29c0-1.99-1.51-3.29-3.76-3.29h-0.79
			c-2.23,0-3.76,1.3-3.76,3.29C309.99,340.33,311.52,341.63,313.75,341.63z M313.8,332.77h0.69c2.09,0,3.5-1.19,3.5-3.02
			c0-1.83-1.41-3.02-3.5-3.02h-0.69c-2.09,0-3.5,1.19-3.5,3.02C310.31,331.58,311.71,332.77,313.8,332.77z"/>
	</g>
	<rect x="338.31" y="309.75" class="st33" width="48.33" height="48.33"/>
	<g>
		<path class="st34" d="M362.51,324.45c4.29,0,6.73,2.7,6.73,6.42c0,2.86-1.38,4.8-3.05,6.97l-4.4,5.75h-3.05l5.49-6.97
			c-0.64,0.34-1.46,0.56-2.49,0.56c-3.5,0-6.02-2.44-6.02-6.31C355.72,327.26,358.24,324.45,362.51,324.45z M362.51,335
			c2.54,0,4.16-1.78,4.16-4.13c0-2.23-1.51-4.08-4.16-4.08c-2.76,0-4.21,1.86-4.21,4.08C358.29,333.22,359.75,335,362.51,335z"/>
	</g>
	<rect x="386.64" y="309.75" class="st33" width="48.33" height="48.33"/>
	<g>
		<path class="st34" d="M410.78,343.91c-4.29,0-6.73-2.7-6.73-6.41c0-2.86,1.38-4.8,3.05-6.97l4.4-5.75h3.05l-5.49,6.97
			c0.64-0.34,1.46-0.56,2.49-0.56c3.5,0,6.02,2.44,6.02,6.31C417.57,341.1,415.05,343.91,410.78,343.91z M410.78,333.36
			c-2.54,0-4.16,1.78-4.16,4.13c0,2.23,1.51,4.08,4.16,4.08c2.76,0,4.21-1.86,4.21-4.08C415,335.13,413.54,333.36,410.78,333.36z"/>
	</g>
	<rect x="0" y="250.65" class="st30" width="48.33" height="48.33"/>
	<g>
		<path class="st5" d="M28.28,278.68v5.8h-2.49v-5.8h-9.54v-1.4l9.22-11.61h2.81v10.79h4v2.23H28.28z M25.78,276.46v-7.82
			l-6.15,7.82H25.78z"/>
	</g>
	<rect x="48.33" y="250.65" class="st29" width="48.33" height="48.33"/>
	<g>
		<path class="st5" d="M79.52,284.49H66.3v-1.59l6.36-6.28c2.04-2.04,3.21-3.42,3.21-5.46c0-2.07-1.33-3.47-3.5-3.47
			c-2.17,0-3.5,1.54-3.5,3.68v1.22h-2.52v-1.25c0-3.45,2.28-5.99,6.02-5.99c3.76,0,6.07,2.49,6.07,5.8c0,3-1.8,4.85-4.11,7.1
			l-3.98,3.9h9.17V284.49z"/>
	</g>
	<rect x="96.66" y="250.65" class="st29" width="48.33" height="48.33"/>
	<g>
		<path class="st5" d="M124.83,279.19c0-2.09-1.4-3.26-3.84-3.26h-3.31v-2.33h3.39c1.99,0,3.21-1.06,3.21-2.97
			c0-1.85-1.48-2.97-3.6-2.97c-2.23,0-3.31,1.27-3.58,2.84h-2.54c0.13-2.41,2.01-5.14,6.1-5.14c3.95,0,6.18,2.17,6.18,5.17
			c0,2.33-1.51,3.6-2.62,4.08c1.4,0.4,3.23,1.78,3.23,4.74c0,3.23-2.49,5.46-6.71,5.46c-4.48,0-6.44-2.76-6.68-5.3h2.57
			c0.29,1.46,1.54,2.97,4.11,2.97C123.21,282.47,124.83,281.26,124.83,279.19z"/>
	</g>
	<rect x="144.99" y="250.65" class="st31" width="48.33" height="48.33"/>
	<g>
		<path class="st32" d="M163.55,276.17v-10.5h11.56V268h-9.12v5.46c0.74-0.74,1.99-1.38,3.82-1.38c3.23,0,6.02,2.23,6.02,6.2v0.29
			c0,3.66-2.62,6.23-6.6,6.23c-4.32,0-6.39-2.65-6.6-5.51h2.52c0.19,1.25,1.17,3.18,4.08,3.18c2.41,0,4.06-1.62,4.06-3.9v-0.27
			c0-2.38-1.64-3.9-4.06-3.9c-2.36,0-3.26,1.33-3.55,1.75H163.55z"/>
	</g>
	<rect x="193.32" y="250.65" class="st31" width="48.33" height="48.33"/>
	<g>
		<path class="st32" d="M212.08,284.49l9.22-16.49h-10.28v-2.33h13.2v1.93l-9.33,16.88H212.08z"/>
	</g>
	<rect x="241.65" y="250.65" class="st33" width="48.33" height="48.33"/>
	<g>
		<path class="st34" d="M265.91,284.49v-15.9l-4.67,2.7v-2.44l5.33-3.26h1.91v18.9H265.91z"/>
	</g>
	<rect x="289.98" y="250.65" class="st33" width="48.33" height="48.33"/>
	<g>
		<path class="st34" d="M320.54,270.55c0,2.52-1.64,3.84-3,4.24c1.46,0.45,3.37,1.91,3.37,4.61c0,3.18-2.46,5.41-6.47,5.41h-0.72
			c-3.9,0-6.33-2.23-6.33-5.41c0-2.7,1.91-4.16,3.37-4.61c-1.35-0.4-3-1.72-3-4.24c0-2.97,2.15-5.2,6.04-5.2h0.69
			C318.42,265.35,320.54,267.58,320.54,270.55z M313.75,282.53h0.79c2.25,0,3.76-1.3,3.76-3.29c0-1.99-1.51-3.29-3.76-3.29h-0.79
			c-2.23,0-3.76,1.3-3.76,3.29C309.99,281.23,311.52,282.53,313.75,282.53z M313.8,273.68h0.69c2.09,0,3.5-1.19,3.5-3.02
			c0-1.83-1.41-3.02-3.5-3.02h-0.69c-2.09,0-3.5,1.19-3.5,3.02C310.31,272.48,311.71,273.68,313.8,273.68z"/>
	</g>
	<rect x="338.31" y="250.65" class="st33" width="48.33" height="48.33"/>
	<g>
		<path class="st34" d="M362.51,265.35c4.29,0,6.73,2.7,6.73,6.42c0,2.86-1.38,4.8-3.05,6.97l-4.4,5.75h-3.05l5.49-6.97
			c-0.64,0.34-1.46,0.56-2.49,0.56c-3.5,0-6.02-2.44-6.02-6.31C355.72,268.16,358.24,265.35,362.51,265.35z M362.51,275.9
			c2.54,0,4.16-1.78,4.16-4.13c0-2.23-1.51-4.08-4.16-4.08c-2.76,0-4.21,1.86-4.21,4.08C358.29,274.13,359.75,275.9,362.51,275.9z"
			/>
	</g>
	<rect x="386.64" y="250.65" class="st33" width="48.33" height="48.33"/>
	<g>
		<path class="st34" d="M410.78,284.81c-4.29,0-6.73-2.7-6.73-6.41c0-2.86,1.38-4.8,3.05-6.97l4.4-5.75h3.05l-5.49,6.97
			c0.64-0.34,1.46-0.56,2.49-0.56c3.5,0,6.02,2.44,6.02,6.31C417.57,282,415.05,284.81,410.78,284.81z M410.78,274.26
			c-2.54,0-4.16,1.78-4.16,4.13c0,2.23,1.51,4.08,4.16,4.08c2.76,0,4.21-1.86,4.21-4.08C415,276.03,413.54,274.26,410.78,274.26z"/>
	</g>
	<rect x="0" y="191.55" class="st30" width="48.33" height="48.33"/>
	<g>
		<path class="st5" d="M28.28,219.59v5.8h-2.49v-5.8h-9.54v-1.4l9.22-11.61h2.81v10.79h4v2.23H28.28z M25.78,217.36v-7.82
			l-6.15,7.82H25.78z"/>
	</g>
	<rect x="48.33" y="191.55" class="st29" width="48.33" height="48.33"/>
	<g>
		<path class="st5" d="M79.52,225.39H66.3v-1.59l6.36-6.28c2.04-2.04,3.21-3.42,3.21-5.46c0-2.07-1.33-3.47-3.5-3.47
			c-2.17,0-3.5,1.54-3.5,3.68v1.22h-2.52v-1.25c0-3.45,2.28-5.99,6.02-5.99c3.76,0,6.07,2.49,6.07,5.8c0,3-1.8,4.85-4.11,7.1
			l-3.98,3.9h9.17V225.39z"/>
	</g>
	<rect x="96.66" y="191.55" class="st31" width="48.33" height="48.33"/>
	<g>
		<path class="st35" d="M115.42,225.39l9.22-16.49h-10.28v-2.33h13.2v1.93l-9.33,16.88H115.42z"/>
	</g>
	<rect x="144.99" y="191.55" class="st31" width="48.33" height="48.33"/>
	<g>
		<path class="st32" d="M163.55,217.07v-10.5h11.56v2.33h-9.12v5.46c0.74-0.74,1.99-1.38,3.82-1.38c3.23,0,6.02,2.23,6.02,6.2v0.29
			c0,3.66-2.62,6.23-6.6,6.23c-4.32,0-6.39-2.65-6.6-5.51h2.52c0.19,1.25,1.17,3.18,4.08,3.18c2.41,0,4.06-1.62,4.06-3.9v-0.27
			c0-2.38-1.64-3.9-4.06-3.9c-2.36,0-3.26,1.33-3.55,1.75H163.55z"/>
	</g>
	<rect x="193.32" y="191.55" class="st33" width="48.33" height="48.33"/>
	<g>
		<path class="st34" d="M221.49,220.09c0-2.09-1.4-3.26-3.84-3.26h-3.31v-2.33h3.39c1.99,0,3.21-1.06,3.21-2.97
			c0-1.85-1.48-2.97-3.6-2.97c-2.23,0-3.31,1.27-3.58,2.84h-2.54c0.13-2.41,2.01-5.14,6.1-5.14c3.95,0,6.18,2.17,6.18,5.17
			c0,2.33-1.51,3.6-2.62,4.08c1.4,0.4,3.23,1.78,3.23,4.74c0,3.23-2.49,5.46-6.71,5.46c-4.48,0-6.44-2.76-6.68-5.3h2.57
			c0.29,1.46,1.54,2.97,4.11,2.97C219.87,223.38,221.49,222.16,221.49,220.09z"/>
	</g>
	<rect x="241.65" y="191.55" class="st33" width="48.33" height="48.33"/>
	<g>
		<path class="st34" d="M265.91,225.39v-15.9l-4.67,2.7v-2.44l5.33-3.26h1.91v18.9H265.91z"/>
	</g>
	<rect x="289.98" y="191.55" class="st33" width="48.33" height="48.33"/>
	<g>
		<path class="st34" d="M320.54,211.45c0,2.52-1.64,3.84-3,4.24c1.46,0.45,3.37,1.91,3.37,4.61c0,3.18-2.46,5.41-6.47,5.41h-0.72
			c-3.9,0-6.33-2.23-6.33-5.41c0-2.7,1.91-4.16,3.37-4.61c-1.35-0.4-3-1.72-3-4.24c0-2.97,2.15-5.2,6.04-5.2h0.69
			C318.42,206.25,320.54,208.48,320.54,211.45z M313.75,223.43h0.79c2.25,0,3.76-1.3,3.76-3.29c0-1.99-1.51-3.29-3.76-3.29h-0.79
			c-2.23,0-3.76,1.3-3.76,3.29C309.99,222.13,311.52,223.43,313.75,223.43z M313.8,214.58h0.69c2.09,0,3.5-1.19,3.5-3.02
			c0-1.83-1.41-3.02-3.5-3.02h-0.69c-2.09,0-3.5,1.19-3.5,3.02C310.31,213.38,311.71,214.58,313.8,214.58z"/>
	</g>
	<rect x="338.31" y="191.55" class="st33" width="48.33" height="48.33"/>
	<g>
		<path class="st34" d="M362.51,206.25c4.29,0,6.73,2.7,6.73,6.41c0,2.86-1.38,4.8-3.05,6.97l-4.4,5.75h-3.05l5.49-6.97
			c-0.64,0.34-1.46,0.56-2.49,0.56c-3.5,0-6.02-2.44-6.02-6.31C355.72,209.06,358.24,206.25,362.51,206.25z M362.51,216.8
			c2.54,0,4.16-1.78,4.16-4.13c0-2.23-1.51-4.08-4.16-4.08c-2.76,0-4.21,1.86-4.21,4.08C358.29,215.03,359.75,216.8,362.51,216.8z"
			/>
	</g>
	<rect x="386.64" y="191.55" class="st33" width="48.33" height="48.33"/>
	<g>
		<path class="st34" d="M410.78,225.71c-4.29,0-6.73-2.7-6.73-6.41c0-2.86,1.38-4.8,3.05-6.97l4.4-5.75h3.05l-5.49,6.97
			c0.64-0.34,1.46-0.56,2.49-0.56c3.5,0,6.02,2.44,6.02,6.31C417.57,222.9,415.05,225.71,410.78,225.71z M410.78,215.16
			c-2.54,0-4.16,1.78-4.16,4.13c0,2.23,1.51,4.08,4.16,4.08c2.76,0,4.21-1.86,4.21-4.08C415,216.94,413.54,215.16,410.78,215.16z"/>
	</g>
	<rect x="0" y="132.45" class="st30" width="48.33" height="48.33"/>
	<g>
		<path class="st5" d="M28.28,160.49v5.8h-2.49v-5.8h-9.54v-1.4l9.22-11.61h2.81v10.79h4v2.23H28.28z M25.78,158.26v-7.82
			l-6.15,7.82H25.78z"/>
	</g>
	<rect x="48.33" y="132.45" class="st29" width="48.33" height="48.33"/>
	<g>
		<path class="st5" d="M79.52,166.29H66.3v-1.59l6.36-6.28c2.04-2.04,3.21-3.42,3.21-5.46c0-2.07-1.33-3.47-3.5-3.47
			c-2.17,0-3.5,1.54-3.5,3.68v1.22h-2.52v-1.25c0-3.45,2.28-5.99,6.02-5.99c3.76,0,6.07,2.49,6.07,5.8c0,3-1.8,4.85-4.11,7.1
			l-3.98,3.9h9.17V166.29z"/>
	</g>
	<rect x="96.66" y="132.45" class="st31" width="48.33" height="48.33"/>
	<g>
		<path class="st35" d="M115.42,166.29l9.22-16.49h-10.28v-2.33h13.2v1.93l-9.33,16.88H115.42z"/>
	</g>
	<rect x="144.99" y="132.45" class="st33" width="48.33" height="48.33"/>
	<g>
		<path class="st34" d="M163.55,157.97v-10.5h11.56v2.33h-9.12v5.46c0.74-0.74,1.99-1.38,3.82-1.38c3.23,0,6.02,2.23,6.02,6.2v0.29
			c0,3.66-2.62,6.23-6.6,6.23c-4.32,0-6.39-2.65-6.6-5.51h2.52c0.19,1.25,1.17,3.18,4.08,3.18c2.41,0,4.06-1.62,4.06-3.9v-0.27
			c0-2.38-1.64-3.9-4.06-3.9c-2.36,0-3.26,1.33-3.55,1.75H163.55z"/>
	</g>
	<rect x="193.32" y="132.45" class="st33" width="48.33" height="48.33"/>
	<g>
		<path class="st34" d="M221.49,160.99c0-2.09-1.4-3.26-3.84-3.26h-3.31v-2.33h3.39c1.99,0,3.21-1.06,3.21-2.97
			c0-1.85-1.48-2.97-3.6-2.97c-2.23,0-3.31,1.27-3.58,2.84h-2.54c0.13-2.41,2.01-5.14,6.1-5.14c3.95,0,6.18,2.17,6.18,5.17
			c0,2.33-1.51,3.6-2.62,4.08c1.4,0.4,3.23,1.78,3.23,4.74c0,3.23-2.49,5.46-6.71,5.46c-4.48,0-6.44-2.76-6.68-5.3h2.57
			c0.29,1.46,1.54,2.97,4.11,2.97C219.87,164.28,221.49,163.06,221.49,160.99z"/>
	</g>
	<rect x="241.65" y="132.45" class="st33" width="48.33" height="48.33"/>
	<g>
		<path class="st34" d="M265.91,166.29v-15.9l-4.67,2.7v-2.44l5.33-3.26h1.91v18.9H265.91z"/>
	</g>
	<rect x="289.98" y="132.45" class="st33" width="48.33" height="48.33"/>
	<g>
		<path class="st34" d="M320.54,152.35c0,2.52-1.64,3.84-3,4.24c1.46,0.45,3.37,1.91,3.37,4.61c0,3.18-2.46,5.41-6.47,5.41h-0.72
			c-3.9,0-6.33-2.23-6.33-5.41c0-2.7,1.91-4.16,3.37-4.61c-1.35-0.4-3-1.72-3-4.24c0-2.97,2.15-5.2,6.04-5.2h0.69
			C318.42,147.16,320.54,149.38,320.54,152.35z M313.75,164.33h0.79c2.25,0,3.76-1.3,3.76-3.29c0-1.99-1.51-3.29-3.76-3.29h-0.79
			c-2.23,0-3.76,1.3-3.76,3.29C309.99,163.03,311.52,164.33,313.75,164.33z M313.8,155.48h0.69c2.09,0,3.5-1.19,3.5-3.02
			c0-1.83-1.41-3.02-3.5-3.02h-0.69c-2.09,0-3.5,1.19-3.5,3.02C310.31,154.29,311.71,155.48,313.8,155.48z"/>
	</g>
	<rect x="338.31" y="132.45" class="st33" width="48.33" height="48.33"/>
	<g>
		<path class="st34" d="M362.51,147.16c4.29,0,6.73,2.7,6.73,6.41c0,2.86-1.38,4.8-3.05,6.97l-4.4,5.75h-3.05l5.49-6.97
			c-0.64,0.34-1.46,0.56-2.49,0.56c-3.5,0-6.02-2.44-6.02-6.31C355.72,149.97,358.24,147.16,362.51,147.16z M362.51,157.71
			c2.54,0,4.16-1.78,4.16-4.13c0-2.23-1.51-4.08-4.16-4.08c-2.76,0-4.21,1.86-4.21,4.08C358.29,155.93,359.75,157.71,362.51,157.71z
			"/>
	</g>
	<rect x="386.64" y="132.45" class="st33" width="48.33" height="48.33"/>
	<g>
		<path class="st34" d="M410.78,166.61c-4.29,0-6.73-2.7-6.73-6.41c0-2.86,1.38-4.8,3.05-6.97l4.4-5.75h3.05l-5.49,6.97
			c0.64-0.34,1.46-0.56,2.49-0.56c3.5,0,6.02,2.44,6.02,6.31C417.57,163.8,415.05,166.61,410.78,166.61z M410.78,156.06
			c-2.54,0-4.16,1.78-4.16,4.13c0,2.23,1.51,4.08,4.16,4.08c2.76,0,4.21-1.86,4.21-4.08C415,157.84,413.54,156.06,410.78,156.06z"/>
	</g>
	<rect x="0" y="73.36" class="st30" width="48.33" height="48.33"/>
	<g>
		<path class="st5" d="M28.28,101.39v5.8h-2.49v-5.8h-9.54v-1.4l9.22-11.61h2.81v10.79h4v2.23H28.28z M25.78,99.16v-7.82l-6.15,7.82
			H25.78z"/>
	</g>
	<rect x="48.33" y="73.36" class="st31" width="48.33" height="48.33"/>
	<g>
		<path class="st32" d="M67.09,107.2l9.22-16.49H66.03v-2.33h13.2v1.93L69.9,107.2H67.09z"/>
	</g>
	<rect x="96.66" y="73.36" class="st33" width="48.33" height="48.33"/>
	<g>
		<path class="st34" d="M127.85,107.2h-13.23v-1.59l6.36-6.28c2.04-2.04,3.21-3.42,3.21-5.46c0-2.07-1.33-3.47-3.5-3.47
			c-2.17,0-3.5,1.54-3.5,3.68v1.22h-2.52v-1.25c0-3.45,2.28-5.99,6.02-5.99c3.76,0,6.07,2.49,6.07,5.8c0,3-1.8,4.85-4.11,7.1
			l-3.98,3.9h9.17V107.2z"/>
	</g>
	<rect x="144.99" y="73.36" class="st33" width="48.33" height="48.33"/>
	<g>
		<path class="st34" d="M163.55,98.87v-10.5h11.56v2.33h-9.12v5.46c0.74-0.74,1.99-1.38,3.82-1.38c3.23,0,6.02,2.23,6.02,6.2v0.29
			c0,3.66-2.62,6.23-6.6,6.23c-4.32,0-6.39-2.65-6.6-5.51h2.52c0.19,1.25,1.17,3.18,4.08,3.18c2.41,0,4.06-1.62,4.06-3.9v-0.27
			c0-2.38-1.64-3.9-4.06-3.9c-2.36,0-3.26,1.33-3.55,1.75H163.55z"/>
	</g>
	<rect x="193.32" y="73.36" class="st33" width="48.33" height="48.33"/>
	<g>
		<path class="st34" d="M221.49,101.89c0-2.09-1.4-3.26-3.84-3.26h-3.31V96.3h3.39c1.99,0,3.21-1.06,3.21-2.97
			c0-1.85-1.48-2.97-3.6-2.97c-2.23,0-3.31,1.27-3.58,2.84h-2.54c0.13-2.41,2.01-5.14,6.1-5.14c3.95,0,6.18,2.17,6.18,5.17
			c0,2.33-1.51,3.6-2.62,4.08c1.4,0.4,3.23,1.78,3.23,4.74c0,3.23-2.49,5.46-6.71,5.46c-4.48,0-6.44-2.76-6.68-5.3h2.57
			c0.29,1.46,1.54,2.97,4.11,2.97C219.87,105.18,221.49,103.96,221.49,101.89z"/>
	</g>
	<rect x="241.65" y="73.36" class="st33" width="48.33" height="48.33"/>
	<g>
		<path class="st34" d="M265.91,107.2v-15.9l-4.67,2.7v-2.44l5.33-3.26h1.91v18.9H265.91z"/>
	</g>
	<rect x="289.98" y="73.36" class="st33" width="48.33" height="48.33"/>
	<g>
		<path class="st34" d="M320.54,93.25c0,2.52-1.64,3.84-3,4.24c1.46,0.45,3.37,1.91,3.37,4.61c0,3.18-2.46,5.41-6.47,5.41h-0.72
			c-3.9,0-6.33-2.23-6.33-5.41c0-2.7,1.91-4.16,3.37-4.61c-1.35-0.4-3-1.72-3-4.24c0-2.97,2.15-5.2,6.04-5.2h0.69
			C318.42,88.06,320.54,90.29,320.54,93.25z M313.75,105.23h0.79c2.25,0,3.76-1.3,3.76-3.29c0-1.99-1.51-3.29-3.76-3.29h-0.79
			c-2.23,0-3.76,1.3-3.76,3.29C309.99,103.94,311.52,105.23,313.75,105.23z M313.8,96.38h0.69c2.09,0,3.5-1.19,3.5-3.02
			c0-1.83-1.41-3.02-3.5-3.02h-0.69c-2.09,0-3.5,1.19-3.5,3.02C310.31,95.19,311.71,96.38,313.8,96.38z"/>
	</g>
	<rect x="338.31" y="73.36" class="st33" width="48.33" height="48.33"/>
	<g>
		<path class="st34" d="M362.51,88.06c4.29,0,6.73,2.7,6.73,6.41c0,2.86-1.38,4.8-3.05,6.97l-4.4,5.75h-3.05l5.49-6.97
			c-0.64,0.34-1.46,0.56-2.49,0.56c-3.5,0-6.02-2.44-6.02-6.31C355.72,90.87,358.24,88.06,362.51,88.06z M362.51,98.61
			c2.54,0,4.16-1.78,4.16-4.13c0-2.23-1.51-4.08-4.16-4.08c-2.76,0-4.21,1.86-4.21,4.08C358.29,96.83,359.75,98.61,362.51,98.61z"/>
	</g>
	<rect x="386.64" y="73.36" class="st33" width="48.33" height="48.33"/>
	<g>
		<path class="st34" d="M410.78,107.51c-4.29,0-6.73-2.7-6.73-6.41c0-2.86,1.38-4.8,3.05-6.97l4.4-5.75h3.05l-5.49,6.97
			c0.64-0.34,1.46-0.56,2.49-0.56c3.5,0,6.02,2.44,6.02,6.31C417.57,104.7,415.05,107.51,410.78,107.51z M410.78,96.97
			c-2.54,0-4.16,1.78-4.16,4.13c0,2.23,1.51,4.08,4.16,4.08c2.76,0,4.21-1.86,4.21-4.08C415,98.74,413.54,96.97,410.78,96.97z"/>
	</g>
	<rect x="0" y="14.26" class="st30" width="48.33" height="48.33"/>
	<g>
		<path class="st5" d="M28.28,42.29v5.8h-2.49v-5.8h-9.54v-1.4l9.22-11.61h2.81v10.79h4v2.23H28.28z M25.78,40.07v-7.82l-6.15,7.82
			H25.78z"/>
	</g>
	<rect x="48.33" y="14.26" class="st33" width="48.33" height="48.33"/>
	<g>
		<path class="st34" d="M67.09,48.1l9.22-16.49H66.03v-2.33h13.2v1.93L69.9,48.1H67.09z"/>
	</g>
	<rect x="96.66" y="14.26" class="st33" width="48.33" height="48.33"/>
	<g>
		<path class="st34" d="M127.85,48.1h-13.23v-1.59l6.36-6.28c2.04-2.04,3.21-3.42,3.21-5.46c0-2.07-1.33-3.47-3.5-3.47
			c-2.17,0-3.5,1.54-3.5,3.68v1.22h-2.52v-1.25c0-3.45,2.28-5.99,6.02-5.99c3.76,0,6.07,2.49,6.07,5.8c0,3-1.8,4.85-4.11,7.1
			l-3.98,3.9h9.17V48.1z"/>
	</g>
	<rect x="144.99" y="14.26" class="st33" width="48.33" height="48.33"/>
	<g>
		<path class="st34" d="M163.55,39.78v-10.5h11.56v2.33h-9.12v5.46c0.74-0.74,1.99-1.38,3.82-1.38c3.23,0,6.02,2.23,6.02,6.2v0.29
			c0,3.66-2.62,6.23-6.6,6.23c-4.32,0-6.39-2.65-6.6-5.51h2.52c0.19,1.25,1.17,3.18,4.08,3.18c2.41,0,4.06-1.62,4.06-3.9v-0.27
			c0-2.38-1.64-3.9-4.06-3.9c-2.36,0-3.26,1.33-3.55,1.75H163.55z"/>
	</g>
	<rect x="193.32" y="14.26" class="st33" width="48.33" height="48.33"/>
	<g>
		<path class="st34" d="M221.49,42.8c0-2.09-1.4-3.26-3.84-3.26h-3.31V37.2h3.39c1.99,0,3.21-1.06,3.21-2.97
			c0-1.85-1.48-2.97-3.6-2.97c-2.23,0-3.31,1.27-3.58,2.84h-2.54c0.13-2.41,2.01-5.14,6.1-5.14c3.95,0,6.18,2.17,6.18,5.17
			c0,2.33-1.51,3.6-2.62,4.08c1.4,0.4,3.23,1.78,3.23,4.74c0,3.23-2.49,5.46-6.71,5.46c-4.48,0-6.44-2.76-6.68-5.3h2.57
			c0.29,1.46,1.54,2.97,4.11,2.97C219.87,46.08,221.49,44.86,221.49,42.8z"/>
	</g>
	<rect x="241.65" y="14.26" class="st33" width="48.33" height="48.33"/>
	<g>
		<path class="st34" d="M265.91,48.1V32.2l-4.67,2.7v-2.44l5.33-3.26h1.91v18.9H265.91z"/>
	</g>
	<rect x="289.98" y="14.26" class="st33" width="48.33" height="48.33"/>
	<g>
		<path class="st34" d="M320.54,34.16c0,2.52-1.64,3.84-3,4.24c1.46,0.45,3.37,1.91,3.37,4.61c0,3.18-2.46,5.41-6.47,5.41h-0.72
			c-3.9,0-6.33-2.23-6.33-5.41c0-2.7,1.91-4.16,3.37-4.61c-1.35-0.4-3-1.72-3-4.24c0-2.97,2.15-5.2,6.04-5.2h0.69
			C318.42,28.96,320.54,31.19,320.54,34.16z M313.75,46.14h0.79c2.25,0,3.76-1.3,3.76-3.29c0-1.99-1.51-3.29-3.76-3.29h-0.79
			c-2.23,0-3.76,1.3-3.76,3.29C309.99,44.84,311.52,46.14,313.75,46.14z M313.8,37.28h0.69c2.09,0,3.5-1.19,3.5-3.02
			c0-1.83-1.41-3.02-3.5-3.02h-0.69c-2.09,0-3.5,1.19-3.5,3.02C310.31,36.09,311.71,37.28,313.8,37.28z"/>
	</g>
	<rect x="338.31" y="14.26" class="st33" width="48.33" height="48.33"/>
	<g>
		<path class="st34" d="M362.51,28.96c4.29,0,6.73,2.7,6.73,6.41c0,2.86-1.38,4.8-3.05,6.97l-4.4,5.75h-3.05l5.49-6.97
			c-0.64,0.34-1.46,0.56-2.49,0.56c-3.5,0-6.02-2.44-6.02-6.31C355.72,31.77,358.24,28.96,362.51,28.96z M362.51,39.51
			c2.54,0,4.16-1.78,4.16-4.13c0-2.23-1.51-4.08-4.16-4.08c-2.76,0-4.21,1.86-4.21,4.08C358.29,37.73,359.75,39.51,362.51,39.51z"/>
	</g>
	<rect x="386.64" y="14.26" class="st33" width="48.33" height="48.33"/>
	<g>
		<path class="st34" d="M410.78,48.42c-4.29,0-6.73-2.7-6.73-6.41c0-2.86,1.38-4.8,3.05-6.97l4.4-5.75h3.05l-5.49,6.97
			c0.64-0.34,1.46-0.56,2.49-0.56c3.5,0,6.02,2.44,6.02,6.31C417.57,45.61,415.05,48.42,410.78,48.42z M410.78,37.87
			c-2.54,0-4.16,1.78-4.16,4.13c0,2.23,1.51,4.08,4.16,4.08c2.76,0,4.21-1.86,4.21-4.08C415,39.64,413.54,37.87,410.78,37.87z"/>
	</g>
</g>
</svg>
